<mxfile host="app.diagrams.net" agent="Mozilla/5.0 (X11; Linux x86_64) AppleWebKit/537.36 (KHTML, like Gecko) Chrome/135.0.0.0 Safari/537.36" version="26.2.14">
  <diagram name="Page-1" id="dV4gOR_IBtZmmg_PkJwF">
    <mxGraphModel dx="1426" dy="758" grid="1" gridSize="10" guides="1" tooltips="1" connect="1" arrows="1" fold="1" page="1" pageScale="1" pageWidth="827" pageHeight="1169" math="0" shadow="0">
      <root>
        <mxCell id="0" />
        <mxCell id="1" parent="0" />
        <mxCell id="Sd7unRfTBgieK_2XC20D-13" value="GET&amp;nbsp;&lt;br&gt;&lt;i style=&quot;font-weight: 400;&quot;&gt;https://api.ejemplo.com/products&lt;/i&gt;" style="swimlane;whiteSpace=wrap;html=1;startSize=40;fillColor=#f5f5f5;fontColor=#333333;strokeColor=#666666;" vertex="1" parent="1">
          <mxGeometry x="70" y="80" width="330" height="390" as="geometry" />
        </mxCell>
        <mxCell id="Sd7unRfTBgieK_2XC20D-15" value="&lt;div style=&quot;text-align: left;&quot;&gt;&lt;font data-font-src=&quot;https://fonts.googleapis.com/css?family=Cascadia+Code&quot; face=&quot;Cascadia Code&quot;&gt;[&lt;/font&gt;&lt;/div&gt;&lt;div style=&quot;text-align: left;&quot;&gt;&lt;font data-font-src=&quot;https://fonts.googleapis.com/css?family=Cascadia+Code&quot; face=&quot;Cascadia Code&quot;&gt;&amp;nbsp; {&lt;/font&gt;&lt;/div&gt;&lt;div style=&quot;text-align: left;&quot;&gt;&lt;font data-font-src=&quot;https://fonts.googleapis.com/css?family=Cascadia+Code&quot; face=&quot;Cascadia Code&quot;&gt;&amp;nbsp; &amp;nbsp; &quot;id&quot;: &lt;font style=&quot;color: rgb(255, 102, 102);&quot;&gt;1&lt;/font&gt;,&lt;/font&gt;&lt;/div&gt;&lt;div style=&quot;text-align: left;&quot;&gt;&lt;font data-font-src=&quot;https://fonts.googleapis.com/css?family=Cascadia+Code&quot; face=&quot;Cascadia Code&quot;&gt;&amp;nbsp; &amp;nbsp; &quot;name&quot;: &lt;font style=&quot;color: rgb(255, 102, 102);&quot;&gt;&quot;Amoladora Makita GA503&quot;&lt;/font&gt;,&lt;/font&gt;&lt;/div&gt;&lt;div style=&quot;text-align: left;&quot;&gt;&lt;font data-font-src=&quot;https://fonts.googleapis.com/css?family=Cascadia+Code&quot; face=&quot;Cascadia Code&quot;&gt;&amp;nbsp; &amp;nbsp; &quot;sku&quot;: &lt;font style=&quot;color: rgb(255, 102, 102);&quot;&gt;&quot;3701204698396&quot;&lt;/font&gt;,&lt;/font&gt;&lt;/div&gt;&lt;div style=&quot;text-align: left;&quot;&gt;&lt;font data-font-src=&quot;https://fonts.googleapis.com/css?family=Cascadia+Code&quot; face=&quot;Cascadia Code&quot;&gt;&amp;nbsp; &amp;nbsp; &quot;price&quot;: &lt;font style=&quot;color: rgb(255, 102, 102);&quot;&gt;&quot;99.50&quot;&lt;/font&gt;,&lt;/font&gt;&lt;/div&gt;&lt;div style=&quot;text-align: left;&quot;&gt;&lt;font data-font-src=&quot;https://fonts.googleapis.com/css?family=Cascadia+Code&quot; face=&quot;Cascadia Code&quot;&gt;&amp;nbsp; &amp;nbsp; &quot;stock&quot;: &lt;font style=&quot;color: rgb(255, 102, 102);&quot;&gt;12&lt;/font&gt;&lt;/font&gt;&lt;/div&gt;&lt;div style=&quot;text-align: left;&quot;&gt;&lt;font data-font-src=&quot;https://fonts.googleapis.com/css?family=Cascadia+Code&quot; face=&quot;Cascadia Code&quot;&gt;&amp;nbsp; },&lt;/font&gt;&lt;/div&gt;&lt;div style=&quot;text-align: left;&quot;&gt;&lt;font data-font-src=&quot;https://fonts.googleapis.com/css?family=Cascadia+Code&quot; face=&quot;Cascadia Code&quot;&gt;&amp;nbsp; {&lt;/font&gt;&lt;/div&gt;&lt;div style=&quot;text-align: left;&quot;&gt;&lt;font data-font-src=&quot;https://fonts.googleapis.com/css?family=Cascadia+Code&quot; face=&quot;Cascadia Code&quot;&gt;&amp;nbsp; &amp;nbsp; &quot;id&quot;: &lt;font style=&quot;color: rgb(255, 102, 102);&quot;&gt;2&lt;/font&gt;,&lt;/font&gt;&lt;/div&gt;&lt;div style=&quot;text-align: left;&quot;&gt;&lt;font data-font-src=&quot;https://fonts.googleapis.com/css?family=Cascadia+Code&quot; face=&quot;Cascadia Code&quot;&gt;&amp;nbsp; &amp;nbsp; &quot;name&quot;: &lt;font style=&quot;color: rgb(255, 102, 102);&quot;&gt;&quot;Taladro Bosch GSB 13 RE&quot;&lt;/font&gt;,&lt;/font&gt;&lt;/div&gt;&lt;div style=&quot;text-align: left;&quot;&gt;&lt;font data-font-src=&quot;https://fonts.googleapis.com/css?family=Cascadia+Code&quot; face=&quot;Cascadia Code&quot;&gt;&amp;nbsp; &amp;nbsp; &quot;sku&quot;: &lt;font style=&quot;color: rgb(255, 102, 102);&quot;&gt;&quot;3165140840430&quot;&lt;/font&gt;,&lt;/font&gt;&lt;/div&gt;&lt;div style=&quot;text-align: left;&quot;&gt;&lt;font data-font-src=&quot;https://fonts.googleapis.com/css?family=Cascadia+Code&quot; face=&quot;Cascadia Code&quot;&gt;&amp;nbsp; &amp;nbsp; &quot;price&quot;: &lt;font style=&quot;color: rgb(255, 102, 102);&quot;&gt;&quot;79.90&quot;&lt;/font&gt;,&lt;/font&gt;&lt;/div&gt;&lt;div style=&quot;text-align: left;&quot;&gt;&lt;font data-font-src=&quot;https://fonts.googleapis.com/css?family=Cascadia+Code&quot; face=&quot;Cascadia Code&quot;&gt;&amp;nbsp; &amp;nbsp; &quot;stock&quot;: &lt;font style=&quot;color: rgb(255, 102, 102);&quot;&gt;0&lt;/font&gt;&lt;/font&gt;&lt;/div&gt;&lt;div style=&quot;text-align: left;&quot;&gt;&lt;font data-font-src=&quot;https://fonts.googleapis.com/css?family=Cascadia+Code&quot; face=&quot;Cascadia Code&quot;&gt;&amp;nbsp; },&lt;/font&gt;&lt;/div&gt;&lt;div style=&quot;text-align: left;&quot;&gt;&lt;font data-font-src=&quot;https://fonts.googleapis.com/css?family=Cascadia+Code&quot; face=&quot;Cascadia Code&quot;&gt;&amp;nbsp; {&lt;/font&gt;&lt;/div&gt;&lt;div style=&quot;text-align: left;&quot;&gt;&lt;font data-font-src=&quot;https://fonts.googleapis.com/css?family=Cascadia+Code&quot; face=&quot;Cascadia Code&quot;&gt;&amp;nbsp; &amp;nbsp; &quot;id&quot;: &lt;font style=&quot;color: rgb(255, 102, 102);&quot;&gt;3&lt;/font&gt;,&lt;/font&gt;&lt;/div&gt;&lt;div style=&quot;text-align: left;&quot;&gt;&lt;font data-font-src=&quot;https://fonts.googleapis.com/css?family=Cascadia+Code&quot; face=&quot;Cascadia Code&quot;&gt;&amp;nbsp; &amp;nbsp; &quot;name&quot;: &lt;font style=&quot;color: rgb(255, 102, 102);&quot;&gt;&quot;Sierra Circular DeWalt DWE560&quot;&lt;/font&gt;,&lt;/font&gt;&lt;/div&gt;&lt;div style=&quot;text-align: left;&quot;&gt;&lt;font data-font-src=&quot;https://fonts.googleapis.com/css?family=Cascadia+Code&quot; face=&quot;Cascadia Code&quot;&gt;&amp;nbsp; &amp;nbsp; &quot;sku&quot;: &lt;font style=&quot;color: rgb(255, 102, 102);&quot;&gt;&quot;5035048290184&quot;&lt;/font&gt;,&lt;/font&gt;&lt;/div&gt;&lt;div style=&quot;text-align: left;&quot;&gt;&lt;font data-font-src=&quot;https://fonts.googleapis.com/css?family=Cascadia+Code&quot; face=&quot;Cascadia Code&quot;&gt;&amp;nbsp; &amp;nbsp; &quot;price&quot;: &lt;font style=&quot;color: rgb(255, 102, 102);&quot;&gt;&quot;129.00&quot;&lt;/font&gt;,&lt;/font&gt;&lt;/div&gt;&lt;div style=&quot;text-align: left;&quot;&gt;&lt;font data-font-src=&quot;https://fonts.googleapis.com/css?family=Cascadia+Code&quot; face=&quot;Cascadia Code&quot;&gt;&amp;nbsp; &amp;nbsp; &quot;stock&quot;: &lt;font style=&quot;color: rgb(255, 102, 102);&quot;&gt;5&lt;/font&gt;&lt;/font&gt;&lt;/div&gt;&lt;div style=&quot;text-align: left;&quot;&gt;&lt;font data-font-src=&quot;https://fonts.googleapis.com/css?family=Cascadia+Code&quot; face=&quot;Cascadia Code&quot;&gt;&amp;nbsp; }&lt;/font&gt;&lt;/div&gt;&lt;div style=&quot;text-align: left;&quot;&gt;&lt;font data-font-src=&quot;https://fonts.googleapis.com/css?family=Cascadia+Code&quot; face=&quot;Cascadia Code&quot;&gt;]&lt;/font&gt;&lt;/div&gt;&lt;div&gt;&lt;br&gt;&lt;/div&gt;" style="text;html=1;align=center;verticalAlign=middle;resizable=0;points=[];autosize=1;strokeColor=none;fillColor=none;" vertex="1" parent="Sd7unRfTBgieK_2XC20D-13">
          <mxGeometry y="40" width="330" height="360" as="geometry" />
        </mxCell>
        <mxCell id="Sd7unRfTBgieK_2XC20D-18" value="&lt;b&gt;JSON&lt;/b&gt;" style="text;html=1;align=center;verticalAlign=middle;whiteSpace=wrap;rounded=0;" vertex="1" parent="Sd7unRfTBgieK_2XC20D-13">
          <mxGeometry x="270" y="360" width="60" height="30" as="geometry" />
        </mxCell>
        <mxCell id="Sd7unRfTBgieK_2XC20D-16" value="GET&amp;nbsp;&lt;br&gt;&lt;i style=&quot;font-weight: 400;&quot;&gt;https://api.ejemplo.com/products?stock=true&lt;/i&gt;" style="swimlane;whiteSpace=wrap;html=1;startSize=40;fillColor=#f5f5f5;fontColor=#333333;strokeColor=#666666;" vertex="1" parent="1">
          <mxGeometry x="440" y="130" width="330" height="290" as="geometry" />
        </mxCell>
        <mxCell id="Sd7unRfTBgieK_2XC20D-17" value="&lt;div style=&quot;text-align: left;&quot;&gt;&lt;font data-font-src=&quot;https://fonts.googleapis.com/css?family=Cascadia+Code&quot; face=&quot;Cascadia Code&quot;&gt;[&lt;/font&gt;&lt;/div&gt;&lt;div style=&quot;text-align: left;&quot;&gt;&lt;font data-font-src=&quot;https://fonts.googleapis.com/css?family=Cascadia+Code&quot; face=&quot;Cascadia Code&quot;&gt;&amp;nbsp; {&lt;/font&gt;&lt;/div&gt;&lt;div style=&quot;text-align: left;&quot;&gt;&lt;font data-font-src=&quot;https://fonts.googleapis.com/css?family=Cascadia+Code&quot; face=&quot;Cascadia Code&quot;&gt;&amp;nbsp; &amp;nbsp; &quot;id&quot;: &lt;font style=&quot;color: rgb(255, 102, 102);&quot;&gt;1&lt;/font&gt;,&lt;/font&gt;&lt;/div&gt;&lt;div style=&quot;text-align: left;&quot;&gt;&lt;font data-font-src=&quot;https://fonts.googleapis.com/css?family=Cascadia+Code&quot; face=&quot;Cascadia Code&quot;&gt;&amp;nbsp; &amp;nbsp; &quot;name&quot;: &lt;font style=&quot;color: rgb(255, 102, 102);&quot;&gt;&quot;Amoladora Makita GA503&quot;&lt;/font&gt;,&lt;/font&gt;&lt;/div&gt;&lt;div style=&quot;text-align: left;&quot;&gt;&lt;font data-font-src=&quot;https://fonts.googleapis.com/css?family=Cascadia+Code&quot; face=&quot;Cascadia Code&quot;&gt;&amp;nbsp; &amp;nbsp; &quot;sku&quot;: &lt;font style=&quot;color: rgb(255, 102, 102);&quot;&gt;&quot;3701204698396&quot;&lt;/font&gt;,&lt;/font&gt;&lt;/div&gt;&lt;div style=&quot;text-align: left;&quot;&gt;&lt;font data-font-src=&quot;https://fonts.googleapis.com/css?family=Cascadia+Code&quot; face=&quot;Cascadia Code&quot;&gt;&amp;nbsp; &amp;nbsp; &quot;price&quot;: &lt;font style=&quot;color: rgb(255, 102, 102);&quot;&gt;&quot;99.50&quot;&lt;/font&gt;,&lt;/font&gt;&lt;/div&gt;&lt;div style=&quot;text-align: left;&quot;&gt;&lt;font data-font-src=&quot;https://fonts.googleapis.com/css?family=Cascadia+Code&quot; face=&quot;Cascadia Code&quot;&gt;&amp;nbsp; &amp;nbsp; &quot;stock&quot;: &lt;font style=&quot;color: rgb(255, 102, 102);&quot;&gt;12&lt;/font&gt;&lt;/font&gt;&lt;/div&gt;&lt;div style=&quot;text-align: left;&quot;&gt;&lt;font data-font-src=&quot;https://fonts.googleapis.com/css?family=Cascadia+Code&quot; face=&quot;Cascadia Code&quot;&gt;&amp;nbsp; },&lt;/font&gt;&lt;/div&gt;&lt;div style=&quot;text-align: left;&quot;&gt;&lt;font data-font-src=&quot;https://fonts.googleapis.com/css?family=Cascadia+Code&quot; face=&quot;Cascadia Code&quot;&gt;&amp;nbsp; {&lt;/font&gt;&lt;/div&gt;&lt;div style=&quot;text-align: left;&quot;&gt;&lt;font data-font-src=&quot;https://fonts.googleapis.com/css?family=Cascadia+Code&quot; face=&quot;Cascadia Code&quot;&gt;&amp;nbsp; &amp;nbsp; &quot;id&quot;: &lt;font style=&quot;color: rgb(255, 102, 102);&quot;&gt;3&lt;/font&gt;,&lt;/font&gt;&lt;/div&gt;&lt;div style=&quot;text-align: left;&quot;&gt;&lt;font data-font-src=&quot;https://fonts.googleapis.com/css?family=Cascadia+Code&quot; face=&quot;Cascadia Code&quot;&gt;&amp;nbsp; &amp;nbsp; &quot;name&quot;: &lt;font style=&quot;color: rgb(255, 102, 102);&quot;&gt;&quot;Sierra Circular DeWalt DWE560&quot;&lt;/font&gt;,&lt;/font&gt;&lt;/div&gt;&lt;div style=&quot;text-align: left;&quot;&gt;&lt;font data-font-src=&quot;https://fonts.googleapis.com/css?family=Cascadia+Code&quot; face=&quot;Cascadia Code&quot;&gt;&amp;nbsp; &amp;nbsp; &quot;sku&quot;: &lt;font style=&quot;color: rgb(255, 102, 102);&quot;&gt;&quot;5035048290184&quot;&lt;/font&gt;,&lt;/font&gt;&lt;/div&gt;&lt;div style=&quot;text-align: left;&quot;&gt;&lt;font data-font-src=&quot;https://fonts.googleapis.com/css?family=Cascadia+Code&quot; face=&quot;Cascadia Code&quot;&gt;&amp;nbsp; &amp;nbsp; &quot;price&quot;: &lt;font style=&quot;color: rgb(255, 102, 102);&quot;&gt;&quot;129.00&quot;&lt;/font&gt;,&lt;/font&gt;&lt;/div&gt;&lt;div style=&quot;text-align: left;&quot;&gt;&lt;font data-font-src=&quot;https://fonts.googleapis.com/css?family=Cascadia+Code&quot; face=&quot;Cascadia Code&quot;&gt;&amp;nbsp; &amp;nbsp; &quot;stock&quot;: &lt;font style=&quot;color: rgb(255, 102, 102);&quot;&gt;5&lt;/font&gt;&lt;/font&gt;&lt;/div&gt;&lt;div style=&quot;text-align: left;&quot;&gt;&lt;font data-font-src=&quot;https://fonts.googleapis.com/css?family=Cascadia+Code&quot; face=&quot;Cascadia Code&quot;&gt;&amp;nbsp; }&lt;/font&gt;&lt;/div&gt;&lt;div style=&quot;text-align: left;&quot;&gt;&lt;font data-font-src=&quot;https://fonts.googleapis.com/css?family=Cascadia+Code&quot; face=&quot;Cascadia Code&quot;&gt;]&lt;/font&gt;&lt;/div&gt;&lt;div&gt;&lt;br&gt;&lt;/div&gt;" style="text;html=1;align=center;verticalAlign=middle;resizable=0;points=[];autosize=1;strokeColor=none;fillColor=none;" vertex="1" parent="Sd7unRfTBgieK_2XC20D-16">
          <mxGeometry y="40" width="330" height="260" as="geometry" />
        </mxCell>
        <mxCell id="Sd7unRfTBgieK_2XC20D-19" value="&lt;b&gt;JSON&lt;/b&gt;" style="text;html=1;align=center;verticalAlign=middle;whiteSpace=wrap;rounded=0;" vertex="1" parent="Sd7unRfTBgieK_2XC20D-16">
          <mxGeometry x="270" y="260" width="60" height="30" as="geometry" />
        </mxCell>
      </root>
    </mxGraphModel>
  </diagram>
</mxfile>
